<svg width="117" height="14" viewBox="0 0 117 14" fill="none" xmlns="http://www.w3.org/2000/svg">
<path d="M0.912 14H4.528C7.008 14 7.952 12.992 7.952 10.544V10.096C7.952 8.32 7.168 7.456 6.112 7.104C7.008 6.736 7.664 6 7.664 4.528V4.112C7.664 1.952 6.656 1.072 4.448 1.072H0.912V14ZM2.448 12.72V7.84H4.336C5.76 7.84 6.4 8.432 6.4 9.904V10.704C6.4 12.288 5.968 12.72 4.352 12.72H2.448ZM2.448 6.544V2.352H4.272C5.504 2.352 6.112 2.544 6.112 4.048V4.752C6.112 6.272 5.264 6.544 4.256 6.544H2.448ZM12.3084 14H13.9724V9.424L17.7324 0.943999H15.9244L13.1564 7.488L10.3724 0.943999H8.54838L12.3084 9.424V14ZM23.1934 14H31.3854C34.1374 14 35.7054 12.736 35.7054 10.16C35.7054 8.56 34.8094 7.36 33.6254 6.96C34.6334 6.544 35.2094 5.552 35.2094 3.984C35.2094 1.664 33.6734 0.559999 31.1614 0.559999H23.1934V14ZM25.4494 11.968V8.096H31.1934C32.5694 8.096 33.3854 8.624 33.3854 10C33.3854 11.392 32.6174 11.968 31.2094 11.968H25.4494ZM25.4494 6.064V2.592H30.9374C32.1054 2.592 32.8894 2.912 32.8894 4.256C32.8894 5.712 31.9934 6.064 30.9054 6.064H25.4494ZM48.3995 14H50.6715C50.4795 13.776 50.4795 13.216 50.4795 12.8V10.944C50.4795 9.36 49.6635 8.24 48.3035 7.92C49.6635 7.568 50.4795 6.448 50.4795 4.704C50.4795 2 48.7995 0.559999 45.6955 0.559999H38.2715V14H40.5275V8.96H45.6315C47.1835 8.96 48.2075 9.456 48.2075 11.008V12.8C48.2075 13.216 48.2075 13.776 48.3995 14ZM40.5275 6.928V2.592H45.5035C47.2475 2.592 48.1595 3.136 48.1595 4.688C48.1595 6.544 47.1675 6.928 45.6315 6.928H40.5275ZM51.8776 14H54.2616L55.0616 11.664H61.2376L62.0376 14H64.4376L59.6536 0.688H56.6296L51.8776 14ZM55.7336 9.68L58.0056 3.04L58.1336 2.704L58.2616 3.04L60.5496 9.68H55.7336ZM65.6353 14H67.2033V4.288L72.4673 14H74.0513V0.943999H72.4833V10.656L67.2193 0.943999H65.6353V14ZM76.0683 14H79.2363C81.8283 14 83.2043 13.12 83.2043 9.952V5.12C83.2043 1.936 81.8283 1.072 79.2363 1.072H76.0683V14ZM77.6043 12.784V2.288H79.2363C80.9963 2.288 81.6523 2.848 81.6523 4.944V10.128C81.6523 12.224 80.9963 12.784 79.2523 12.784H77.6043Z" fill="#0C0910"/>
<path d="M94 7H116M116 7C113.66 6.81579 108.979 6.03448 108.979 0M116 7C113.66 7.0614 108.979 7.96552 108.979 14" stroke="#0C0910" stroke-width="2"/>
</svg>
