<svg width="640" height="72" viewBox="0 0 640 72" fill="none" xmlns="http://www.w3.org/2000/svg">
<rect width="223" height="32" rx="8" fill="#808080"/>
<path d="M15.3337 9.33398H28.667C29.5837 9.33398 30.3337 10.084 30.3337 11.0007V21.0007C30.3337 21.9173 29.5837 22.6673 28.667 22.6673H15.3337C14.417 22.6673 13.667 21.9173 13.667 21.0007V11.0007C13.667 10.084 14.417 9.33398 15.3337 9.33398Z" stroke="#262626" stroke-width="2" stroke-linecap="round" stroke-linejoin="round"/>
<path d="M30.3337 11L22.0003 16.8333L13.667 11" stroke="#262626" stroke-width="2" stroke-linecap="round" stroke-linejoin="round"/>
<path d="M45.3252 19.7354V15.9277C45.3252 15.6361 45.266 15.3831 45.1475 15.1689C45.0335 14.9502 44.8604 14.7816 44.6279 14.6631C44.3955 14.5446 44.1084 14.4854 43.7666 14.4854C43.4476 14.4854 43.1673 14.54 42.9258 14.6494C42.6888 14.7588 42.502 14.9023 42.3652 15.0801C42.2331 15.2578 42.167 15.4492 42.167 15.6543H40.9023C40.9023 15.39 40.9707 15.1279 41.1074 14.8682C41.2441 14.6084 41.4401 14.3737 41.6953 14.1641C41.9551 13.9499 42.265 13.7812 42.625 13.6582C42.9896 13.5306 43.3952 13.4668 43.8418 13.4668C44.3796 13.4668 44.8535 13.5579 45.2637 13.7402C45.6784 13.9225 46.002 14.1982 46.2344 14.5674C46.4714 14.932 46.5898 15.39 46.5898 15.9414V19.3867C46.5898 19.6328 46.6104 19.8949 46.6514 20.1729C46.6969 20.4508 46.763 20.6901 46.8496 20.8906V21H45.5303C45.4665 20.8542 45.4163 20.6605 45.3799 20.4189C45.3434 20.1729 45.3252 19.945 45.3252 19.7354ZM45.5439 16.5156L45.5576 17.4043H44.2793C43.9193 17.4043 43.598 17.4339 43.3154 17.4932C43.0329 17.5479 42.7959 17.6322 42.6045 17.7461C42.4131 17.86 42.2673 18.0036 42.167 18.1768C42.0667 18.3454 42.0166 18.5436 42.0166 18.7715C42.0166 19.0039 42.069 19.2158 42.1738 19.4072C42.2786 19.5986 42.4359 19.7513 42.6455 19.8652C42.8597 19.9746 43.1217 20.0293 43.4316 20.0293C43.819 20.0293 44.1608 19.9473 44.457 19.7832C44.7533 19.6191 44.988 19.4186 45.1611 19.1816C45.3389 18.9447 45.4346 18.7145 45.4482 18.4912L45.9883 19.0996C45.9564 19.291 45.8698 19.5029 45.7285 19.7354C45.5872 19.9678 45.3981 20.1911 45.1611 20.4053C44.9287 20.6149 44.6507 20.7904 44.3271 20.9316C44.0081 21.0684 43.6481 21.1367 43.2471 21.1367C42.7458 21.1367 42.306 21.0387 41.9277 20.8428C41.554 20.6468 41.2624 20.3848 41.0527 20.0566C40.8477 19.724 40.7451 19.3525 40.7451 18.9424C40.7451 18.5459 40.8226 18.1973 40.9775 17.8965C41.1325 17.5911 41.3558 17.3382 41.6475 17.1377C41.9391 16.9326 42.29 16.7777 42.7002 16.6729C43.1104 16.568 43.5684 16.5156 44.0742 16.5156H45.5439ZM49.9531 10.5V21H48.6816V10.5H49.9531ZM53.3574 10.5V21H52.0859V10.5H53.3574ZM55.0527 17.3838V17.2266C55.0527 16.6934 55.1302 16.1989 55.2852 15.7432C55.4401 15.2829 55.6634 14.8841 55.9551 14.5469C56.2467 14.2051 56.5999 13.9408 57.0146 13.7539C57.4294 13.5625 57.8942 13.4668 58.4092 13.4668C58.9287 13.4668 59.3958 13.5625 59.8105 13.7539C60.2298 13.9408 60.5853 14.2051 60.877 14.5469C61.1732 14.8841 61.3988 15.2829 61.5537 15.7432C61.7087 16.1989 61.7861 16.6934 61.7861 17.2266V17.3838C61.7861 17.917 61.7087 18.4115 61.5537 18.8672C61.3988 19.3229 61.1732 19.7217 60.877 20.0635C60.5853 20.4007 60.2321 20.665 59.8174 20.8564C59.4072 21.0433 58.9424 21.1367 58.4229 21.1367C57.9033 21.1367 57.4362 21.0433 57.0215 20.8564C56.6068 20.665 56.2513 20.4007 55.9551 20.0635C55.6634 19.7217 55.4401 19.3229 55.2852 18.8672C55.1302 18.4115 55.0527 17.917 55.0527 17.3838ZM56.3174 17.2266V17.3838C56.3174 17.7529 56.3607 18.1016 56.4473 18.4297C56.5339 18.7533 56.6637 19.0404 56.8369 19.291C57.0146 19.5417 57.2357 19.7399 57.5 19.8857C57.7643 20.027 58.0719 20.0977 58.4229 20.0977C58.7692 20.0977 59.0723 20.027 59.332 19.8857C59.5964 19.7399 59.8151 19.5417 59.9883 19.291C60.1615 19.0404 60.2913 18.7533 60.3779 18.4297C60.4691 18.1016 60.5146 17.7529 60.5146 17.3838V17.2266C60.5146 16.862 60.4691 16.5179 60.3779 16.1943C60.2913 15.8662 60.1592 15.5768 59.9814 15.3262C59.8083 15.071 59.5895 14.8704 59.3252 14.7246C59.0654 14.5788 58.7601 14.5059 58.4092 14.5059C58.0628 14.5059 57.7575 14.5788 57.4932 14.7246C57.2334 14.8704 57.0146 15.071 56.8369 15.3262C56.6637 15.5768 56.5339 15.8662 56.4473 16.1943C56.3607 16.5179 56.3174 16.862 56.3174 17.2266ZM64.6367 14.7656V21H63.3721V13.6035H64.6025L64.6367 14.7656ZM66.9473 13.5625L66.9404 14.7383C66.8356 14.7155 66.7354 14.7018 66.6396 14.6973C66.5485 14.6882 66.4437 14.6836 66.3252 14.6836C66.0335 14.6836 65.776 14.7292 65.5527 14.8203C65.3294 14.9115 65.1403 15.0391 64.9854 15.2031C64.8304 15.3672 64.7074 15.5632 64.6162 15.791C64.5296 16.0143 64.4727 16.2604 64.4453 16.5293L64.0898 16.7344C64.0898 16.2878 64.1331 15.8685 64.2197 15.4766C64.3109 15.0846 64.4499 14.7383 64.6367 14.4375C64.8236 14.1322 65.0605 13.8952 65.3477 13.7266C65.6393 13.5534 65.9857 13.4668 66.3867 13.4668C66.4779 13.4668 66.5827 13.4782 66.7012 13.501C66.8197 13.5192 66.9017 13.5397 66.9473 13.5625ZM69.3809 15.1826V21H68.1162V13.6035H69.3125L69.3809 15.1826ZM69.0801 17.0215L68.5537 17.001C68.5583 16.4951 68.6335 16.028 68.7793 15.5996C68.9251 15.1667 69.1302 14.7907 69.3945 14.4717C69.6589 14.1527 69.9733 13.9066 70.3379 13.7334C70.707 13.5557 71.1149 13.4668 71.5615 13.4668C71.9261 13.4668 72.2542 13.5169 72.5459 13.6172C72.8376 13.7129 73.0859 13.8678 73.291 14.082C73.5007 14.2962 73.6602 14.5742 73.7695 14.916C73.8789 15.2533 73.9336 15.6657 73.9336 16.1533V21H72.6621V16.1396C72.6621 15.7523 72.6051 15.4424 72.4912 15.21C72.3773 14.973 72.2109 14.8021 71.9922 14.6973C71.7734 14.5879 71.5046 14.5332 71.1855 14.5332C70.8711 14.5332 70.584 14.5993 70.3242 14.7314C70.069 14.8636 69.848 15.0459 69.6611 15.2783C69.4788 15.5107 69.3353 15.7773 69.2305 16.0781C69.1302 16.3743 69.0801 16.6888 69.0801 17.0215ZM75.5195 17.3838V17.2266C75.5195 16.6934 75.597 16.1989 75.752 15.7432C75.9069 15.2829 76.1302 14.8841 76.4219 14.5469C76.7135 14.2051 77.0667 13.9408 77.4814 13.7539C77.8962 13.5625 78.361 13.4668 78.876 13.4668C79.3955 13.4668 79.8626 13.5625 80.2773 13.7539C80.6966 13.9408 81.0521 14.2051 81.3438 14.5469C81.64 14.8841 81.8656 15.2829 82.0205 15.7432C82.1755 16.1989 82.2529 16.6934 82.2529 17.2266V17.3838C82.2529 17.917 82.1755 18.4115 82.0205 18.8672C81.8656 19.3229 81.64 19.7217 81.3438 20.0635C81.0521 20.4007 80.6989 20.665 80.2842 20.8564C79.874 21.0433 79.4092 21.1367 78.8896 21.1367C78.3701 21.1367 77.903 21.0433 77.4883 20.8564C77.0736 20.665 76.7181 20.4007 76.4219 20.0635C76.1302 19.7217 75.9069 19.3229 75.752 18.8672C75.597 18.4115 75.5195 17.917 75.5195 17.3838ZM76.7842 17.2266V17.3838C76.7842 17.7529 76.8275 18.1016 76.9141 18.4297C77.0007 18.7533 77.1305 19.0404 77.3037 19.291C77.4814 19.5417 77.7025 19.7399 77.9668 19.8857C78.2311 20.027 78.5387 20.0977 78.8896 20.0977C79.236 20.0977 79.5391 20.027 79.7988 19.8857C80.0632 19.7399 80.2819 19.5417 80.4551 19.291C80.6283 19.0404 80.7581 18.7533 80.8447 18.4297C80.9359 18.1016 80.9814 17.7529 80.9814 17.3838V17.2266C80.9814 16.862 80.9359 16.5179 80.8447 16.1943C80.7581 15.8662 80.626 15.5768 80.4482 15.3262C80.2751 15.071 80.0563 14.8704 79.792 14.7246C79.5322 14.5788 79.2269 14.5059 78.876 14.5059C78.5296 14.5059 78.2243 14.5788 77.96 14.7246C77.7002 14.8704 77.4814 15.071 77.3037 15.3262C77.1305 15.5768 77.0007 15.8662 76.9141 16.1943C76.8275 16.5179 76.7842 16.862 76.7842 17.2266ZM86.9355 13.6035V14.5742H82.9365V13.6035H86.9355ZM84.29 11.8057H85.5547V19.168C85.5547 19.4186 85.5934 19.6077 85.6709 19.7354C85.7484 19.863 85.8486 19.9473 85.9717 19.9883C86.0947 20.0293 86.2269 20.0498 86.3682 20.0498C86.473 20.0498 86.5824 20.0407 86.6963 20.0225C86.8148 19.9997 86.9036 19.9814 86.9629 19.9678L86.9697 21C86.8695 21.0319 86.7373 21.0615 86.5732 21.0889C86.4137 21.1208 86.2201 21.1367 85.9922 21.1367C85.6823 21.1367 85.3975 21.0752 85.1377 20.9521C84.8779 20.8291 84.6706 20.624 84.5156 20.3369C84.3652 20.0452 84.29 19.6533 84.29 19.1611V11.8057ZM89.6836 10.5V21H88.4189V10.5H89.6836ZM89.3828 17.0215L88.8564 17.001C88.861 16.4951 88.9362 16.028 89.082 15.5996C89.2279 15.1667 89.4329 14.7907 89.6973 14.4717C89.9616 14.1527 90.276 13.9066 90.6406 13.7334C91.0098 13.5557 91.4176 13.4668 91.8643 13.4668C92.2288 13.4668 92.557 13.5169 92.8486 13.6172C93.1403 13.7129 93.3887 13.8678 93.5938 14.082C93.8034 14.2962 93.9629 14.5742 94.0723 14.916C94.1816 15.2533 94.2363 15.6657 94.2363 16.1533V21H92.9648V16.1396C92.9648 15.7523 92.9079 15.4424 92.7939 15.21C92.68 14.973 92.5137 14.8021 92.2949 14.6973C92.0762 14.5879 91.8073 14.5332 91.4883 14.5332C91.1738 14.5332 90.8867 14.5993 90.627 14.7314C90.3717 14.8636 90.1507 15.0459 89.9639 15.2783C89.7816 15.5107 89.638 15.7773 89.5332 16.0781C89.4329 16.3743 89.3828 16.6888 89.3828 17.0215ZM97.5039 13.6035V21H96.2324V13.6035H97.5039ZM96.1367 11.6416C96.1367 11.4365 96.1982 11.2633 96.3213 11.1221C96.4489 10.9808 96.6357 10.9102 96.8818 10.9102C97.1234 10.9102 97.3079 10.9808 97.4355 11.1221C97.5677 11.2633 97.6338 11.4365 97.6338 11.6416C97.6338 11.8376 97.5677 12.0062 97.4355 12.1475C97.3079 12.2842 97.1234 12.3525 96.8818 12.3525C96.6357 12.3525 96.4489 12.2842 96.3213 12.1475C96.1982 12.0062 96.1367 11.8376 96.1367 11.6416ZM100.799 15.1826V21H99.5342V13.6035H100.73L100.799 15.1826ZM100.498 17.0215L99.9717 17.001C99.9762 16.4951 100.051 16.028 100.197 15.5996C100.343 15.1667 100.548 14.7907 100.812 14.4717C101.077 14.1527 101.391 13.9066 101.756 13.7334C102.125 13.5557 102.533 13.4668 102.979 13.4668C103.344 13.4668 103.672 13.5169 103.964 13.6172C104.256 13.7129 104.504 13.8678 104.709 14.082C104.919 14.2962 105.078 14.5742 105.188 14.916C105.297 15.2533 105.352 15.6657 105.352 16.1533V21H104.08V16.1396C104.08 15.7523 104.023 15.4424 103.909 15.21C103.795 14.973 103.629 14.8021 103.41 14.6973C103.191 14.5879 102.923 14.5332 102.604 14.5332C102.289 14.5332 102.002 14.5993 101.742 14.7314C101.487 14.8636 101.266 15.0459 101.079 15.2783C100.897 15.5107 100.753 15.7773 100.648 16.0781C100.548 16.3743 100.498 16.6888 100.498 17.0215ZM112.064 13.6035H113.213V20.8428C113.213 21.4945 113.081 22.0505 112.816 22.5107C112.552 22.971 112.183 23.3197 111.709 23.5566C111.24 23.7982 110.697 23.9189 110.082 23.9189C109.827 23.9189 109.526 23.8779 109.18 23.7959C108.838 23.7184 108.501 23.584 108.168 23.3926C107.84 23.2057 107.564 22.9528 107.341 22.6338L108.004 21.8818C108.314 22.2555 108.637 22.5153 108.975 22.6611C109.316 22.807 109.654 22.8799 109.986 22.8799C110.387 22.8799 110.734 22.8047 111.025 22.6543C111.317 22.5039 111.543 22.2806 111.702 21.9844C111.866 21.6927 111.948 21.3327 111.948 20.9043V15.2305L112.064 13.6035ZM106.972 17.3838V17.2402C106.972 16.6751 107.038 16.1624 107.17 15.7021C107.307 15.2373 107.5 14.8385 107.751 14.5059C108.006 14.1732 108.314 13.918 108.674 13.7402C109.034 13.5579 109.439 13.4668 109.891 13.4668C110.355 13.4668 110.761 13.5488 111.107 13.7129C111.458 13.8724 111.755 14.1071 111.996 14.417C112.242 14.7223 112.436 15.0915 112.577 15.5244C112.718 15.9574 112.816 16.4473 112.871 16.9941V17.623C112.821 18.1654 112.723 18.653 112.577 19.0859C112.436 19.5189 112.242 19.888 111.996 20.1934C111.755 20.4987 111.458 20.7334 111.107 20.8975C110.757 21.057 110.346 21.1367 109.877 21.1367C109.435 21.1367 109.034 21.0433 108.674 20.8564C108.318 20.6696 108.013 20.4076 107.758 20.0703C107.503 19.7331 107.307 19.3366 107.17 18.8809C107.038 18.4206 106.972 17.9215 106.972 17.3838ZM108.236 17.2402V17.3838C108.236 17.7529 108.273 18.0993 108.346 18.4229C108.423 18.7464 108.539 19.0312 108.694 19.2773C108.854 19.5234 109.057 19.7171 109.303 19.8584C109.549 19.9951 109.843 20.0635 110.185 20.0635C110.604 20.0635 110.95 19.9746 111.224 19.7969C111.497 19.6191 111.714 19.3844 111.873 19.0928C112.037 18.8011 112.165 18.4844 112.256 18.1426V16.4951C112.206 16.2445 112.128 16.0029 112.023 15.7705C111.923 15.5335 111.791 15.3239 111.627 15.1416C111.467 14.9548 111.269 14.8066 111.032 14.6973C110.795 14.5879 110.517 14.5332 110.198 14.5332C109.852 14.5332 109.553 14.6061 109.303 14.752C109.057 14.8932 108.854 15.0892 108.694 15.3398C108.539 15.5859 108.423 15.873 108.346 16.2012C108.273 16.5247 108.236 16.8711 108.236 17.2402ZM115.154 20.3301C115.154 20.1159 115.22 19.9359 115.353 19.79C115.489 19.6396 115.685 19.5645 115.94 19.5645C116.196 19.5645 116.389 19.6396 116.521 19.79C116.658 19.9359 116.727 20.1159 116.727 20.3301C116.727 20.5397 116.658 20.7174 116.521 20.8633C116.389 21.0091 116.196 21.082 115.94 21.082C115.685 21.082 115.489 21.0091 115.353 20.8633C115.22 20.7174 115.154 20.5397 115.154 20.3301ZM123.351 19.291V13.6035H124.622V21H123.412L123.351 19.291ZM123.59 17.7324L124.116 17.7188C124.116 18.2109 124.064 18.6667 123.959 19.0859C123.859 19.5007 123.695 19.8607 123.467 20.166C123.239 20.4714 122.94 20.7106 122.571 20.8838C122.202 21.0524 121.753 21.1367 121.225 21.1367C120.865 21.1367 120.534 21.0843 120.233 20.9795C119.937 20.8747 119.682 20.7129 119.468 20.4941C119.254 20.2754 119.087 19.9906 118.969 19.6396C118.855 19.2887 118.798 18.8672 118.798 18.375V13.6035H120.062V18.3887C120.062 18.7214 120.099 18.9971 120.172 19.2158C120.249 19.43 120.352 19.6009 120.479 19.7285C120.612 19.8516 120.757 19.9382 120.917 19.9883C121.081 20.0384 121.25 20.0635 121.423 20.0635C121.961 20.0635 122.387 19.9609 122.701 19.7559C123.016 19.5462 123.241 19.266 123.378 18.915C123.519 18.5596 123.59 18.1654 123.59 17.7324ZM132.06 19.9609V21H126.68V19.9609H132.06ZM131.861 14.499L126.967 21H126.194V20.0703L131.055 13.6035H131.861V14.499ZM131.301 13.6035V14.6494H126.249V13.6035H131.301ZM144.398 17.5615C144.38 17.9808 144.316 18.4023 144.207 18.8262C144.098 19.2454 143.934 19.6305 143.715 19.9814C143.496 20.3324 143.211 20.6149 142.86 20.8291C142.514 21.0387 142.095 21.1436 141.603 21.1436C141.288 21.1436 141.012 21.0889 140.775 20.9795C140.543 20.8656 140.352 20.7038 140.201 20.4941C140.055 20.2845 139.953 20.0316 139.894 19.7354C139.839 19.4391 139.83 19.1087 139.866 18.7441L140.215 14.957H141.22L140.871 18.7441C140.844 19.0768 140.851 19.348 140.892 19.5576C140.937 19.7673 141.006 19.929 141.097 20.043C141.188 20.1523 141.29 20.2275 141.404 20.2686C141.523 20.3096 141.637 20.3301 141.746 20.3301C142.02 20.3301 142.263 20.2594 142.478 20.1182C142.692 19.9723 142.872 19.7741 143.018 19.5234C143.168 19.2682 143.284 18.9743 143.366 18.6416C143.448 18.3044 143.498 17.9443 143.517 17.5615C143.549 16.8825 143.517 16.2581 143.421 15.6885C143.33 15.1188 143.173 14.613 142.949 14.1709C142.73 13.7288 142.443 13.3551 142.088 13.0498C141.732 12.7445 141.309 12.512 140.816 12.3525C140.324 12.193 139.761 12.1133 139.128 12.1133C138.554 12.1133 138.023 12.2021 137.535 12.3799C137.052 12.5531 136.617 12.8037 136.229 13.1318C135.847 13.46 135.516 13.8542 135.238 14.3145C134.965 14.7747 134.748 15.2943 134.589 15.873C134.434 16.4473 134.343 17.0671 134.315 17.7324C134.284 18.416 134.32 19.0449 134.425 19.6191C134.53 20.1888 134.698 20.6969 134.931 21.1436C135.168 21.5947 135.466 21.9753 135.826 22.2852C136.186 22.5996 136.603 22.8366 137.077 22.9961C137.551 23.1602 138.08 23.2422 138.663 23.2422C139.064 23.2422 139.47 23.1943 139.88 23.0986C140.295 23.0029 140.641 22.873 140.919 22.709L141.179 23.4883C140.86 23.6934 140.461 23.846 139.982 23.9463C139.508 24.0465 139.06 24.0967 138.636 24.0967C137.943 24.0967 137.31 24.001 136.735 23.8096C136.166 23.6227 135.66 23.347 135.218 22.9824C134.78 22.6224 134.416 22.1826 134.124 21.6631C133.832 21.1481 133.618 20.5602 133.481 19.8994C133.345 19.2386 133.292 18.5163 133.324 17.7324C133.356 16.985 133.468 16.2809 133.659 15.6201C133.855 14.9593 134.122 14.36 134.459 13.8223C134.796 13.2845 135.197 12.8219 135.662 12.4346C136.132 12.0426 136.658 11.7419 137.241 11.5322C137.829 11.3226 138.467 11.2178 139.155 11.2178C139.857 11.2178 140.493 11.3135 141.062 11.5049C141.632 11.6963 142.131 11.972 142.56 12.332C142.993 12.6921 143.35 13.1318 143.633 13.6514C143.915 14.1709 144.12 14.7588 144.248 15.415C144.38 16.0713 144.43 16.7868 144.398 17.5615ZM137.378 18.1426C137.346 18.4616 137.346 18.7464 137.378 18.9971C137.41 19.2477 137.471 19.4596 137.562 19.6328C137.654 19.806 137.772 19.9382 137.918 20.0293C138.068 20.1159 138.244 20.1592 138.444 20.1592C138.576 20.1592 138.715 20.1273 138.861 20.0635C139.007 19.9951 139.151 19.8903 139.292 19.749C139.433 19.6077 139.565 19.4232 139.688 19.1953C139.812 18.9674 139.914 18.694 139.996 18.375L140.447 18.8672C140.342 19.2409 140.206 19.569 140.037 19.8516C139.873 20.1341 139.688 20.3711 139.483 20.5625C139.278 20.7539 139.06 20.8997 138.827 21C138.599 21.0957 138.367 21.1436 138.13 21.1436C137.797 21.1436 137.506 21.0729 137.255 20.9316C137.004 20.7858 136.801 20.5807 136.646 20.3164C136.492 20.0521 136.382 19.7376 136.318 19.373C136.259 19.0039 136.25 18.5938 136.291 18.1426C136.332 17.6641 136.416 17.222 136.544 16.8164C136.672 16.4108 136.829 16.0485 137.016 15.7295C137.207 15.4105 137.421 15.1393 137.658 14.916C137.9 14.6927 138.155 14.5241 138.424 14.4102C138.693 14.2917 138.968 14.2324 139.251 14.2324C139.743 14.2324 140.131 14.3053 140.413 14.4512C140.696 14.5924 140.965 14.7611 141.22 14.957L140.639 15.6338C140.507 15.5062 140.333 15.3877 140.119 15.2783C139.905 15.1689 139.652 15.1143 139.36 15.1143C139.11 15.1143 138.875 15.1781 138.656 15.3057C138.438 15.4333 138.239 15.6247 138.062 15.8799C137.888 16.1351 137.743 16.4518 137.624 16.8301C137.506 17.2038 137.424 17.6413 137.378 18.1426ZM150.865 13.6035H152.014V20.8428C152.014 21.4945 151.882 22.0505 151.617 22.5107C151.353 22.971 150.984 23.3197 150.51 23.5566C150.04 23.7982 149.498 23.9189 148.883 23.9189C148.628 23.9189 148.327 23.8779 147.98 23.7959C147.639 23.7184 147.301 23.584 146.969 23.3926C146.641 23.2057 146.365 22.9528 146.142 22.6338L146.805 21.8818C147.115 22.2555 147.438 22.5153 147.775 22.6611C148.117 22.807 148.454 22.8799 148.787 22.8799C149.188 22.8799 149.535 22.8047 149.826 22.6543C150.118 22.5039 150.343 22.2806 150.503 21.9844C150.667 21.6927 150.749 21.3327 150.749 20.9043V15.2305L150.865 13.6035ZM145.772 17.3838V17.2402C145.772 16.6751 145.839 16.1624 145.971 15.7021C146.107 15.2373 146.301 14.8385 146.552 14.5059C146.807 14.1732 147.115 13.918 147.475 13.7402C147.835 13.5579 148.24 13.4668 148.691 13.4668C149.156 13.4668 149.562 13.5488 149.908 13.7129C150.259 13.8724 150.555 14.1071 150.797 14.417C151.043 14.7223 151.237 15.0915 151.378 15.5244C151.519 15.9574 151.617 16.4473 151.672 16.9941V17.623C151.622 18.1654 151.524 18.653 151.378 19.0859C151.237 19.5189 151.043 19.888 150.797 20.1934C150.555 20.4987 150.259 20.7334 149.908 20.8975C149.557 21.057 149.147 21.1367 148.678 21.1367C148.236 21.1367 147.835 21.0433 147.475 20.8564C147.119 20.6696 146.814 20.4076 146.559 20.0703C146.303 19.7331 146.107 19.3366 145.971 18.8809C145.839 18.4206 145.772 17.9215 145.772 17.3838ZM147.037 17.2402V17.3838C147.037 17.7529 147.074 18.0993 147.146 18.4229C147.224 18.7464 147.34 19.0312 147.495 19.2773C147.655 19.5234 147.857 19.7171 148.104 19.8584C148.35 19.9951 148.644 20.0635 148.985 20.0635C149.405 20.0635 149.751 19.9746 150.024 19.7969C150.298 19.6191 150.514 19.3844 150.674 19.0928C150.838 18.8011 150.965 18.4844 151.057 18.1426V16.4951C151.007 16.2445 150.929 16.0029 150.824 15.7705C150.724 15.5335 150.592 15.3239 150.428 15.1416C150.268 14.9548 150.07 14.8066 149.833 14.6973C149.596 14.5879 149.318 14.5332 148.999 14.5332C148.653 14.5332 148.354 14.6061 148.104 14.752C147.857 14.8932 147.655 15.0892 147.495 15.3398C147.34 15.5859 147.224 15.873 147.146 16.2012C147.074 16.5247 147.037 16.8711 147.037 17.2402ZM155.192 15.0732V21H153.921V13.6035H155.124L155.192 15.0732ZM154.933 17.0215L154.345 17.001C154.349 16.4951 154.415 16.028 154.543 15.5996C154.671 15.1667 154.86 14.7907 155.11 14.4717C155.361 14.1527 155.673 13.9066 156.047 13.7334C156.421 13.5557 156.854 13.4668 157.346 13.4668C157.692 13.4668 158.011 13.5169 158.303 13.6172C158.594 13.7129 158.847 13.8656 159.062 14.0752C159.276 14.2848 159.442 14.5537 159.561 14.8818C159.679 15.21 159.738 15.6064 159.738 16.0713V21H158.474V16.1328C158.474 15.7454 158.408 15.4355 158.275 15.2031C158.148 14.9707 157.965 14.8021 157.729 14.6973C157.492 14.5879 157.214 14.5332 156.895 14.5332C156.521 14.5332 156.209 14.5993 155.958 14.7314C155.707 14.8636 155.507 15.0459 155.356 15.2783C155.206 15.5107 155.097 15.7773 155.028 16.0781C154.965 16.3743 154.933 16.6888 154.933 17.0215ZM159.725 16.3242L158.877 16.584C158.882 16.1784 158.948 15.7887 159.075 15.415C159.207 15.0413 159.396 14.7087 159.643 14.417C159.893 14.1253 160.201 13.8952 160.565 13.7266C160.93 13.5534 161.347 13.4668 161.816 13.4668C162.213 13.4668 162.564 13.5192 162.869 13.624C163.179 13.7288 163.439 13.8906 163.648 14.1094C163.863 14.3236 164.024 14.5993 164.134 14.9365C164.243 15.2738 164.298 15.6748 164.298 16.1396V21H163.026V16.126C163.026 15.7113 162.96 15.39 162.828 15.1621C162.701 14.9297 162.518 14.7679 162.281 14.6768C162.049 14.5811 161.771 14.5332 161.447 14.5332C161.169 14.5332 160.923 14.5811 160.709 14.6768C160.495 14.7725 160.315 14.9046 160.169 15.0732C160.023 15.2373 159.911 15.4264 159.834 15.6406C159.761 15.8548 159.725 16.0827 159.725 16.3242ZM170.573 19.7354V15.9277C170.573 15.6361 170.514 15.3831 170.396 15.1689C170.282 14.9502 170.108 14.7816 169.876 14.6631C169.644 14.5446 169.356 14.4854 169.015 14.4854C168.696 14.4854 168.415 14.54 168.174 14.6494C167.937 14.7588 167.75 14.9023 167.613 15.0801C167.481 15.2578 167.415 15.4492 167.415 15.6543H166.15C166.15 15.39 166.219 15.1279 166.355 14.8682C166.492 14.6084 166.688 14.3737 166.943 14.1641C167.203 13.9499 167.513 13.7812 167.873 13.6582C168.238 13.5306 168.643 13.4668 169.09 13.4668C169.628 13.4668 170.102 13.5579 170.512 13.7402C170.926 13.9225 171.25 14.1982 171.482 14.5674C171.719 14.932 171.838 15.39 171.838 15.9414V19.3867C171.838 19.6328 171.858 19.8949 171.899 20.1729C171.945 20.4508 172.011 20.6901 172.098 20.8906V21H170.778C170.715 20.8542 170.664 20.6605 170.628 20.4189C170.591 20.1729 170.573 19.945 170.573 19.7354ZM170.792 16.5156L170.806 17.4043H169.527C169.167 17.4043 168.846 17.4339 168.563 17.4932C168.281 17.5479 168.044 17.6322 167.853 17.7461C167.661 17.86 167.515 18.0036 167.415 18.1768C167.315 18.3454 167.265 18.5436 167.265 18.7715C167.265 19.0039 167.317 19.2158 167.422 19.4072C167.527 19.5986 167.684 19.7513 167.894 19.8652C168.108 19.9746 168.37 20.0293 168.68 20.0293C169.067 20.0293 169.409 19.9473 169.705 19.7832C170.001 19.6191 170.236 19.4186 170.409 19.1816C170.587 18.9447 170.683 18.7145 170.696 18.4912L171.236 19.0996C171.204 19.291 171.118 19.5029 170.977 19.7354C170.835 19.9678 170.646 20.1911 170.409 20.4053C170.177 20.6149 169.899 20.7904 169.575 20.9316C169.256 21.0684 168.896 21.1367 168.495 21.1367C167.994 21.1367 167.554 21.0387 167.176 20.8428C166.802 20.6468 166.51 20.3848 166.301 20.0566C166.096 19.724 165.993 19.3525 165.993 18.9424C165.993 18.5459 166.071 18.1973 166.226 17.8965C166.381 17.5911 166.604 17.3382 166.896 17.1377C167.187 16.9326 167.538 16.7777 167.948 16.6729C168.358 16.568 168.816 16.5156 169.322 16.5156H170.792ZM175.201 13.6035V21H173.93V13.6035H175.201ZM173.834 11.6416C173.834 11.4365 173.896 11.2633 174.019 11.1221C174.146 10.9808 174.333 10.9102 174.579 10.9102C174.821 10.9102 175.005 10.9808 175.133 11.1221C175.265 11.2633 175.331 11.4365 175.331 11.6416C175.331 11.8376 175.265 12.0062 175.133 12.1475C175.005 12.2842 174.821 12.3525 174.579 12.3525C174.333 12.3525 174.146 12.2842 174.019 12.1475C173.896 12.0062 173.834 11.8376 173.834 11.6416ZM178.605 10.5V21H177.334V10.5H178.605ZM180.656 20.3301C180.656 20.1159 180.722 19.9359 180.854 19.79C180.991 19.6396 181.187 19.5645 181.442 19.5645C181.698 19.5645 181.891 19.6396 182.023 19.79C182.16 19.9359 182.229 20.1159 182.229 20.3301C182.229 20.5397 182.16 20.7174 182.023 20.8633C181.891 21.0091 181.698 21.082 181.442 21.082C181.187 21.082 180.991 21.0091 180.854 20.8633C180.722 20.7174 180.656 20.5397 180.656 20.3301ZM187.287 20.0977C187.588 20.0977 187.866 20.0361 188.121 19.9131C188.376 19.79 188.586 19.6214 188.75 19.4072C188.914 19.1885 189.007 18.9401 189.03 18.6621H190.233C190.211 19.0996 190.062 19.5075 189.789 19.8857C189.52 20.2594 189.167 20.5625 188.729 20.7949C188.292 21.0228 187.811 21.1367 187.287 21.1367C186.731 21.1367 186.246 21.0387 185.831 20.8428C185.421 20.6468 185.079 20.3779 184.806 20.0361C184.537 19.6943 184.334 19.3024 184.197 18.8604C184.065 18.4137 183.999 17.9421 183.999 17.4453V17.1582C183.999 16.6615 184.065 16.1921 184.197 15.75C184.334 15.3034 184.537 14.9092 184.806 14.5674C185.079 14.2256 185.421 13.9567 185.831 13.7607C186.246 13.5648 186.731 13.4668 187.287 13.4668C187.866 13.4668 188.372 13.5853 188.805 13.8223C189.238 14.0547 189.577 14.3737 189.823 14.7793C190.074 15.1803 190.211 15.6361 190.233 16.1465H189.03C189.007 15.8411 188.921 15.5654 188.771 15.3193C188.625 15.0732 188.424 14.8773 188.169 14.7314C187.918 14.5811 187.624 14.5059 187.287 14.5059C186.9 14.5059 186.574 14.5833 186.31 14.7383C186.05 14.8887 185.842 15.0938 185.688 15.3535C185.537 15.6087 185.428 15.8936 185.359 16.208C185.296 16.5179 185.264 16.8346 185.264 17.1582V17.4453C185.264 17.7689 185.296 18.0879 185.359 18.4023C185.423 18.7168 185.53 19.0016 185.681 19.2568C185.836 19.512 186.043 19.7171 186.303 19.8721C186.567 20.0225 186.895 20.0977 187.287 20.0977ZM191.32 17.3838V17.2266C191.32 16.6934 191.398 16.1989 191.553 15.7432C191.708 15.2829 191.931 14.8841 192.223 14.5469C192.514 14.2051 192.868 13.9408 193.282 13.7539C193.697 13.5625 194.162 13.4668 194.677 13.4668C195.196 13.4668 195.663 13.5625 196.078 13.7539C196.497 13.9408 196.853 14.2051 197.145 14.5469C197.441 14.8841 197.666 15.2829 197.821 15.7432C197.976 16.1989 198.054 16.6934 198.054 17.2266V17.3838C198.054 17.917 197.976 18.4115 197.821 18.8672C197.666 19.3229 197.441 19.7217 197.145 20.0635C196.853 20.4007 196.5 20.665 196.085 20.8564C195.675 21.0433 195.21 21.1367 194.69 21.1367C194.171 21.1367 193.704 21.0433 193.289 20.8564C192.874 20.665 192.519 20.4007 192.223 20.0635C191.931 19.7217 191.708 19.3229 191.553 18.8672C191.398 18.4115 191.32 17.917 191.32 17.3838ZM192.585 17.2266V17.3838C192.585 17.7529 192.628 18.1016 192.715 18.4297C192.801 18.7533 192.931 19.0404 193.104 19.291C193.282 19.5417 193.503 19.7399 193.768 19.8857C194.032 20.027 194.34 20.0977 194.69 20.0977C195.037 20.0977 195.34 20.027 195.6 19.8857C195.864 19.7399 196.083 19.5417 196.256 19.291C196.429 19.0404 196.559 18.7533 196.646 18.4297C196.737 18.1016 196.782 17.7529 196.782 17.3838V17.2266C196.782 16.862 196.737 16.5179 196.646 16.1943C196.559 15.8662 196.427 15.5768 196.249 15.3262C196.076 15.071 195.857 14.8704 195.593 14.7246C195.333 14.5788 195.028 14.5059 194.677 14.5059C194.33 14.5059 194.025 14.5788 193.761 14.7246C193.501 14.8704 193.282 15.071 193.104 15.3262C192.931 15.5768 192.801 15.8662 192.715 16.1943C192.628 16.5179 192.585 16.862 192.585 17.2266ZM200.897 15.0732V21H199.626V13.6035H200.829L200.897 15.0732ZM200.638 17.0215L200.05 17.001C200.054 16.4951 200.12 16.028 200.248 15.5996C200.376 15.1667 200.565 14.7907 200.815 14.4717C201.066 14.1527 201.378 13.9066 201.752 13.7334C202.126 13.5557 202.559 13.4668 203.051 13.4668C203.397 13.4668 203.716 13.5169 204.008 13.6172C204.299 13.7129 204.552 13.8656 204.767 14.0752C204.981 14.2848 205.147 14.5537 205.266 14.8818C205.384 15.21 205.443 15.6064 205.443 16.0713V21H204.179V16.1328C204.179 15.7454 204.113 15.4355 203.98 15.2031C203.853 14.9707 203.671 14.8021 203.434 14.6973C203.197 14.5879 202.919 14.5332 202.6 14.5332C202.226 14.5332 201.914 14.5993 201.663 14.7314C201.412 14.8636 201.212 15.0459 201.062 15.2783C200.911 15.5107 200.802 15.7773 200.733 16.0781C200.67 16.3743 200.638 16.6888 200.638 17.0215ZM205.43 16.3242L204.582 16.584C204.587 16.1784 204.653 15.7887 204.78 15.415C204.912 15.0413 205.102 14.7087 205.348 14.417C205.598 14.1253 205.906 13.8952 206.271 13.7266C206.635 13.5534 207.052 13.4668 207.521 13.4668C207.918 13.4668 208.269 13.5192 208.574 13.624C208.884 13.7288 209.144 13.8906 209.354 14.1094C209.568 14.3236 209.729 14.5993 209.839 14.9365C209.948 15.2738 210.003 15.6748 210.003 16.1396V21H208.731V16.126C208.731 15.7113 208.665 15.39 208.533 15.1621C208.406 14.9297 208.223 14.7679 207.986 14.6768C207.754 14.5811 207.476 14.5332 207.152 14.5332C206.874 14.5332 206.628 14.5811 206.414 14.6768C206.2 14.7725 206.02 14.9046 205.874 15.0732C205.728 15.2373 205.617 15.4264 205.539 15.6406C205.466 15.8548 205.43 16.0827 205.43 16.3242Z" fill="#262626"/>
<rect y="40" width="303" height="32" rx="8" fill="#808080"/>
<path d="M29.9999 48.4794C28.4086 46.8881 26.2504 45.9941 23.9999 45.9941C21.7495 45.9941 19.5912 46.8881 17.9999 48.4794C16.4086 50.0707 15.5146 52.229 15.5146 54.4794C15.5146 56.7299 16.4086 58.8881 17.9999 60.4794L23.2699 65.7594C23.3629 65.8532 23.4735 65.9275 23.5954 65.9783C23.7172 66.0291 23.8479 66.0552 23.9799 66.0552C24.1119 66.0552 24.2426 66.0291 24.3645 65.9783C24.4864 65.9275 24.597 65.8532 24.6899 65.7594L29.9999 60.4294C31.5846 58.8447 32.4748 56.6955 32.4748 54.4544C32.4748 52.2134 31.5846 50.0641 29.9999 48.4794ZM28.5699 58.9994L23.9999 63.5894L19.4299 58.9994C18.5271 58.0957 17.9124 56.9447 17.6636 55.6917C17.4148 54.4388 17.5431 53.1402 18.0322 51.9601C18.5213 50.78 19.3493 49.7715 20.4116 49.0619C21.4738 48.3523 22.7225 47.9736 23.9999 47.9736C25.2773 47.9736 26.5261 48.3523 27.5883 49.0619C28.6505 49.7715 29.4785 50.78 29.9676 51.9601C30.4567 53.1402 30.585 54.4388 30.3362 55.6917C30.0875 56.9447 29.4728 58.0957 28.5699 58.9994ZM20.9999 51.4094C20.1926 52.2192 19.7393 53.316 19.7393 54.4594C19.7393 55.6029 20.1926 56.6997 20.9999 57.5094C21.5997 58.1102 22.3635 58.5205 23.1956 58.6888C24.0276 58.8571 24.8909 58.776 25.677 58.4556C26.4631 58.1351 27.1371 57.5897 27.6144 56.8877C28.0917 56.1856 28.3511 55.3583 28.3599 54.5094C28.3644 53.9426 28.2553 53.3807 28.0388 52.8568C27.8224 52.3329 27.5032 51.8578 27.0999 51.4594C26.7036 51.054 26.231 50.731 25.7094 50.5089C25.1877 50.2868 24.6273 50.1701 24.0603 50.1655C23.4934 50.1608 22.9311 50.2683 22.4059 50.4818C21.8807 50.6953 21.4029 51.0106 20.9999 51.4094ZM25.6899 56.0894C25.311 56.4742 24.8101 56.7153 24.2731 56.7717C23.736 56.828 23.196 56.6961 22.7454 56.3983C22.2949 56.1006 21.9617 55.6557 21.8029 55.1395C21.6441 54.6233 21.6696 54.0681 21.8749 53.5686C22.0802 53.0691 22.4526 52.6564 22.9285 52.4012C23.4044 52.1459 23.9542 52.0638 24.4839 52.169C25.0135 52.2742 25.4902 52.5602 25.8324 52.978C26.1746 53.3957 26.3611 53.9194 26.3599 54.4594C26.3454 55.0767 26.0864 55.6629 25.6399 56.0894H25.6899Z" fill="#262626"/>
<path d="M48.833 51.0469V61H47.5342V51.0469H48.833ZM52.0322 51.0469V52.127H44.3418V51.0469H52.0322ZM51.8477 60.3301C51.8477 60.1159 51.9137 59.9359 52.0459 59.79C52.1826 59.6396 52.3786 59.5645 52.6338 59.5645C52.889 59.5645 53.0827 59.6396 53.2148 59.79C53.3516 59.9359 53.4199 60.1159 53.4199 60.3301C53.4199 60.5397 53.3516 60.7174 53.2148 60.8633C53.0827 61.0091 52.889 61.082 52.6338 61.082C52.3786 61.082 52.1826 61.0091 52.0459 60.8633C51.9137 60.7174 51.8477 60.5397 51.8477 60.3301ZM59.8252 59.0381C59.8252 58.8558 59.7842 58.6872 59.7021 58.5322C59.6247 58.3727 59.4629 58.2292 59.2168 58.1016C58.9753 57.9694 58.6107 57.8555 58.123 57.7598C57.7129 57.6732 57.3415 57.5706 57.0088 57.4521C56.6807 57.3337 56.4004 57.1901 56.168 57.0215C55.9401 56.8529 55.7646 56.6546 55.6416 56.4268C55.5186 56.1989 55.457 55.9323 55.457 55.627C55.457 55.3353 55.5208 55.0596 55.6484 54.7998C55.7806 54.54 55.9652 54.3099 56.2021 54.1094C56.4437 53.9089 56.7331 53.7516 57.0703 53.6377C57.4076 53.5238 57.7835 53.4668 58.1982 53.4668C58.7907 53.4668 59.2965 53.5716 59.7158 53.7812C60.1351 53.9909 60.4564 54.2712 60.6797 54.6221C60.903 54.9684 61.0146 55.3535 61.0146 55.7773H59.75C59.75 55.5723 59.6885 55.374 59.5654 55.1826C59.4469 54.9867 59.2715 54.8249 59.0391 54.6973C58.8112 54.5697 58.5309 54.5059 58.1982 54.5059C57.8473 54.5059 57.5625 54.5605 57.3438 54.6699C57.1296 54.7747 56.9723 54.9092 56.8721 55.0732C56.7764 55.2373 56.7285 55.4105 56.7285 55.5928C56.7285 55.7295 56.7513 55.8525 56.7969 55.9619C56.847 56.0667 56.9336 56.1647 57.0566 56.2559C57.1797 56.3424 57.3529 56.4245 57.5762 56.502C57.7995 56.5794 58.0843 56.6569 58.4307 56.7344C59.0368 56.8711 59.5358 57.0352 59.9277 57.2266C60.3197 57.418 60.6113 57.6527 60.8027 57.9307C60.9941 58.2087 61.0898 58.5459 61.0898 58.9424C61.0898 59.266 61.0215 59.5622 60.8848 59.8311C60.7526 60.0999 60.5589 60.3324 60.3037 60.5283C60.0531 60.7197 59.7523 60.8701 59.4014 60.9795C59.055 61.0843 58.6654 61.1367 58.2324 61.1367C57.5807 61.1367 57.0293 61.0205 56.5781 60.7881C56.127 60.5557 55.7852 60.2549 55.5527 59.8857C55.3203 59.5166 55.2041 59.127 55.2041 58.7168H56.4756C56.4938 59.0632 56.5941 59.3389 56.7764 59.5439C56.9587 59.7445 57.182 59.888 57.4463 59.9746C57.7106 60.0566 57.9727 60.0977 58.2324 60.0977C58.5788 60.0977 58.8682 60.0521 59.1006 59.9609C59.3376 59.8698 59.5176 59.7445 59.6406 59.585C59.7637 59.4255 59.8252 59.2432 59.8252 59.0381ZM64.0156 50.5V61H62.751V50.5H64.0156ZM63.7148 57.0215L63.1885 57.001C63.193 56.4951 63.2682 56.028 63.4141 55.5996C63.5599 55.1667 63.765 54.7907 64.0293 54.4717C64.2936 54.1527 64.6081 53.9066 64.9727 53.7334C65.3418 53.5557 65.7497 53.4668 66.1963 53.4668C66.5609 53.4668 66.889 53.5169 67.1807 53.6172C67.4723 53.7129 67.7207 53.8678 67.9258 54.082C68.1354 54.2962 68.2949 54.5742 68.4043 54.916C68.5137 55.2533 68.5684 55.6657 68.5684 56.1533V61H67.2969V56.1396C67.2969 55.7523 67.2399 55.4424 67.126 55.21C67.012 54.973 66.8457 54.8021 66.627 54.6973C66.4082 54.5879 66.1393 54.5332 65.8203 54.5332C65.5059 54.5332 65.2188 54.5993 64.959 54.7314C64.7038 54.8636 64.4827 55.0459 64.2959 55.2783C64.1136 55.5107 63.9701 55.7773 63.8652 56.0781C63.765 56.3743 63.7148 56.6888 63.7148 57.0215ZM74.543 51.0469H75.8213L79.082 59.1611L82.3359 51.0469H83.6211L79.5742 61H78.5762L74.543 51.0469ZM74.126 51.0469H75.2539L75.4385 57.1172V61H74.126V51.0469ZM82.9033 51.0469H84.0312V61H82.7188V57.1172L82.9033 51.0469ZM85.8223 57.3838V57.2266C85.8223 56.6934 85.8997 56.1989 86.0547 55.7432C86.2096 55.2829 86.4329 54.8841 86.7246 54.5469C87.0163 54.2051 87.3695 53.9408 87.7842 53.7539C88.1989 53.5625 88.6637 53.4668 89.1787 53.4668C89.6982 53.4668 90.1654 53.5625 90.5801 53.7539C90.9993 53.9408 91.3548 54.2051 91.6465 54.5469C91.9427 54.8841 92.1683 55.2829 92.3232 55.7432C92.4782 56.1989 92.5557 56.6934 92.5557 57.2266V57.3838C92.5557 57.917 92.4782 58.4115 92.3232 58.8672C92.1683 59.3229 91.9427 59.7217 91.6465 60.0635C91.3548 60.4007 91.0016 60.665 90.5869 60.8564C90.1768 61.0433 89.7119 61.1367 89.1924 61.1367C88.6729 61.1367 88.2057 61.0433 87.791 60.8564C87.3763 60.665 87.0208 60.4007 86.7246 60.0635C86.4329 59.7217 86.2096 59.3229 86.0547 58.8672C85.8997 58.4115 85.8223 57.917 85.8223 57.3838ZM87.0869 57.2266V57.3838C87.0869 57.7529 87.1302 58.1016 87.2168 58.4297C87.3034 58.7533 87.4333 59.0404 87.6064 59.291C87.7842 59.5417 88.0052 59.7399 88.2695 59.8857C88.5339 60.027 88.8415 60.0977 89.1924 60.0977C89.5387 60.0977 89.8418 60.027 90.1016 59.8857C90.3659 59.7399 90.5846 59.5417 90.7578 59.291C90.931 59.0404 91.0609 58.7533 91.1475 58.4297C91.2386 58.1016 91.2842 57.7529 91.2842 57.3838V57.2266C91.2842 56.862 91.2386 56.5179 91.1475 56.1943C91.0609 55.8662 90.9287 55.5768 90.751 55.3262C90.5778 55.071 90.359 54.8704 90.0947 54.7246C89.835 54.5788 89.5296 54.5059 89.1787 54.5059C88.8324 54.5059 88.527 54.5788 88.2627 54.7246C88.0029 54.8704 87.7842 55.071 87.6064 55.3262C87.4333 55.5768 87.3034 55.8662 87.2168 56.1943C87.1302 56.5179 87.0869 56.862 87.0869 57.2266ZM95.5156 53.6035V61H94.2441V53.6035H95.5156ZM94.1484 51.6416C94.1484 51.4365 94.21 51.2633 94.333 51.1221C94.4606 50.9808 94.6475 50.9102 94.8936 50.9102C95.1351 50.9102 95.3197 50.9808 95.4473 51.1221C95.5794 51.2633 95.6455 51.4365 95.6455 51.6416C95.6455 51.8376 95.5794 52.0062 95.4473 52.1475C95.3197 52.2842 95.1351 52.3525 94.8936 52.3525C94.6475 52.3525 94.4606 52.2842 94.333 52.1475C94.21 52.0062 94.1484 51.8376 94.1484 51.6416ZM98.8105 54.7656V61H97.5459V53.6035H98.7764L98.8105 54.7656ZM101.121 53.5625L101.114 54.7383C101.009 54.7155 100.909 54.7018 100.813 54.6973C100.722 54.6882 100.618 54.6836 100.499 54.6836C100.207 54.6836 99.9499 54.7292 99.7266 54.8203C99.5033 54.9115 99.3141 55.0391 99.1592 55.2031C99.0042 55.3672 98.8812 55.5632 98.79 55.791C98.7035 56.0143 98.6465 56.2604 98.6191 56.5293L98.2637 56.7344C98.2637 56.2878 98.307 55.8685 98.3936 55.4766C98.4847 55.0846 98.6237 54.7383 98.8105 54.4375C98.9974 54.1322 99.2344 53.8952 99.5215 53.7266C99.8132 53.5534 100.16 53.4668 100.561 53.4668C100.652 53.4668 100.757 53.4782 100.875 53.501C100.993 53.5192 101.076 53.5397 101.121 53.5625ZM101.818 57.3838V57.2266C101.818 56.6934 101.896 56.1989 102.051 55.7432C102.206 55.2829 102.429 54.8841 102.721 54.5469C103.012 54.2051 103.366 53.9408 103.78 53.7539C104.195 53.5625 104.66 53.4668 105.175 53.4668C105.694 53.4668 106.161 53.5625 106.576 53.7539C106.995 53.9408 107.351 54.2051 107.643 54.5469C107.939 54.8841 108.164 55.2829 108.319 55.7432C108.474 56.1989 108.552 56.6934 108.552 57.2266V57.3838C108.552 57.917 108.474 58.4115 108.319 58.8672C108.164 59.3229 107.939 59.7217 107.643 60.0635C107.351 60.4007 106.998 60.665 106.583 60.8564C106.173 61.0433 105.708 61.1367 105.188 61.1367C104.669 61.1367 104.202 61.0433 103.787 60.8564C103.372 60.665 103.017 60.4007 102.721 60.0635C102.429 59.7217 102.206 59.3229 102.051 58.8672C101.896 58.4115 101.818 57.917 101.818 57.3838ZM103.083 57.2266V57.3838C103.083 57.7529 103.126 58.1016 103.213 58.4297C103.299 58.7533 103.429 59.0404 103.603 59.291C103.78 59.5417 104.001 59.7399 104.266 59.8857C104.53 60.027 104.838 60.0977 105.188 60.0977C105.535 60.0977 105.838 60.027 106.098 59.8857C106.362 59.7399 106.581 59.5417 106.754 59.291C106.927 59.0404 107.057 58.7533 107.144 58.4297C107.235 58.1016 107.28 57.7529 107.28 57.3838V57.2266C107.28 56.862 107.235 56.5179 107.144 56.1943C107.057 55.8662 106.925 55.5768 106.747 55.3262C106.574 55.071 106.355 54.8704 106.091 54.7246C105.831 54.5788 105.526 54.5059 105.175 54.5059C104.828 54.5059 104.523 54.5788 104.259 54.7246C103.999 54.8704 103.78 55.071 103.603 55.3262C103.429 55.5768 103.299 55.8662 103.213 56.1943C103.126 56.5179 103.083 56.862 103.083 57.2266ZM110.131 50.5H111.402V59.5645L111.293 61H110.131V50.5ZM116.399 57.2402V57.3838C116.399 57.9215 116.336 58.4206 116.208 58.8809C116.08 59.3366 115.894 59.7331 115.647 60.0703C115.401 60.4076 115.101 60.6696 114.745 60.8564C114.39 61.0433 113.982 61.1367 113.521 61.1367C113.052 61.1367 112.64 61.057 112.284 60.8975C111.933 60.7334 111.637 60.4987 111.396 60.1934C111.154 59.888 110.96 59.5189 110.814 59.0859C110.673 58.653 110.575 58.1654 110.521 57.623V56.9941C110.575 56.4473 110.673 55.9574 110.814 55.5244C110.96 55.0915 111.154 54.7223 111.396 54.417C111.637 54.1071 111.933 53.8724 112.284 53.7129C112.635 53.5488 113.043 53.4668 113.508 53.4668C113.973 53.4668 114.385 53.5579 114.745 53.7402C115.105 53.918 115.406 54.1732 115.647 54.5059C115.894 54.8385 116.08 55.2373 116.208 55.7021C116.336 56.1624 116.399 56.6751 116.399 57.2402ZM115.128 57.3838V57.2402C115.128 56.8711 115.094 56.5247 115.025 56.2012C114.957 55.873 114.848 55.5859 114.697 55.3398C114.547 55.0892 114.349 54.8932 114.103 54.752C113.856 54.6061 113.553 54.5332 113.193 54.5332C112.874 54.5332 112.596 54.5879 112.359 54.6973C112.127 54.8066 111.929 54.9548 111.765 55.1416C111.601 55.3239 111.466 55.5335 111.361 55.7705C111.261 56.0029 111.186 56.2445 111.136 56.4951V58.1426C111.209 58.4616 111.327 58.7692 111.491 59.0654C111.66 59.3571 111.883 59.5964 112.161 59.7832C112.444 59.9701 112.792 60.0635 113.207 60.0635C113.549 60.0635 113.84 59.9951 114.082 59.8584C114.328 59.7171 114.526 59.5234 114.677 59.2773C114.832 59.0312 114.946 58.7464 115.019 58.4229C115.091 58.0993 115.128 57.7529 115.128 57.3838ZM117.664 57.3838V57.2266C117.664 56.6934 117.742 56.1989 117.896 55.7432C118.051 55.2829 118.275 54.8841 118.566 54.5469C118.858 54.2051 119.211 53.9408 119.626 53.7539C120.041 53.5625 120.506 53.4668 121.021 53.4668C121.54 53.4668 122.007 53.5625 122.422 53.7539C122.841 53.9408 123.197 54.2051 123.488 54.5469C123.785 54.8841 124.01 55.2829 124.165 55.7432C124.32 56.1989 124.397 56.6934 124.397 57.2266V57.3838C124.397 57.917 124.32 58.4115 124.165 58.8672C124.01 59.3229 123.785 59.7217 123.488 60.0635C123.197 60.4007 122.843 60.665 122.429 60.8564C122.019 61.0433 121.554 61.1367 121.034 61.1367C120.515 61.1367 120.048 61.0433 119.633 60.8564C119.218 60.665 118.863 60.4007 118.566 60.0635C118.275 59.7217 118.051 59.3229 117.896 58.8672C117.742 58.4115 117.664 57.917 117.664 57.3838ZM118.929 57.2266V57.3838C118.929 57.7529 118.972 58.1016 119.059 58.4297C119.145 58.7533 119.275 59.0404 119.448 59.291C119.626 59.5417 119.847 59.7399 120.111 59.8857C120.376 60.027 120.683 60.0977 121.034 60.0977C121.381 60.0977 121.684 60.027 121.943 59.8857C122.208 59.7399 122.426 59.5417 122.6 59.291C122.773 59.0404 122.903 58.7533 122.989 58.4297C123.08 58.1016 123.126 57.7529 123.126 57.3838V57.2266C123.126 56.862 123.08 56.5179 122.989 56.1943C122.903 55.8662 122.771 55.5768 122.593 55.3262C122.42 55.071 122.201 54.8704 121.937 54.7246C121.677 54.5788 121.371 54.5059 121.021 54.5059C120.674 54.5059 120.369 54.5788 120.104 54.7246C119.845 54.8704 119.626 55.071 119.448 55.3262C119.275 55.5768 119.145 55.8662 119.059 56.1943C118.972 56.5179 118.929 56.862 118.929 57.2266ZM130.646 59.5645V50.5H131.917V61H130.755L130.646 59.5645ZM125.669 57.3838V57.2402C125.669 56.6751 125.737 56.1624 125.874 55.7021C126.015 55.2373 126.214 54.8385 126.469 54.5059C126.729 54.1732 127.036 53.918 127.392 53.7402C127.752 53.5579 128.153 53.4668 128.595 53.4668C129.06 53.4668 129.465 53.5488 129.812 53.7129C130.162 53.8724 130.459 54.1071 130.7 54.417C130.946 54.7223 131.14 55.0915 131.281 55.5244C131.423 55.9574 131.521 56.4473 131.575 56.9941V57.623C131.525 58.1654 131.427 58.653 131.281 59.0859C131.14 59.5189 130.946 59.888 130.7 60.1934C130.459 60.4987 130.162 60.7334 129.812 60.8975C129.461 61.057 129.05 61.1367 128.581 61.1367C128.148 61.1367 127.752 61.0433 127.392 60.8564C127.036 60.6696 126.729 60.4076 126.469 60.0703C126.214 59.7331 126.015 59.3366 125.874 58.8809C125.737 58.4206 125.669 57.9215 125.669 57.3838ZM126.94 57.2402V57.3838C126.94 57.7529 126.977 58.0993 127.05 58.4229C127.127 58.7464 127.246 59.0312 127.405 59.2773C127.565 59.5234 127.768 59.7171 128.014 59.8584C128.26 59.9951 128.554 60.0635 128.896 60.0635C129.315 60.0635 129.659 59.9746 129.928 59.7969C130.201 59.6191 130.42 59.3844 130.584 59.0928C130.748 58.8011 130.876 58.4844 130.967 58.1426V56.4951C130.912 56.2445 130.832 56.0029 130.728 55.7705C130.627 55.5335 130.495 55.3239 130.331 55.1416C130.172 54.9548 129.973 54.8066 129.736 54.6973C129.504 54.5879 129.228 54.5332 128.909 54.5332C128.563 54.5332 128.264 54.6061 128.014 54.752C127.768 54.8932 127.565 55.0892 127.405 55.3398C127.246 55.5859 127.127 55.873 127.05 56.2012C126.977 56.5247 126.94 56.8711 126.94 57.2402ZM140.455 53.6035V54.5742H136.456V53.6035H140.455ZM137.81 51.8057H139.074V59.168C139.074 59.4186 139.113 59.6077 139.19 59.7354C139.268 59.863 139.368 59.9473 139.491 59.9883C139.614 60.0293 139.746 60.0498 139.888 60.0498C139.993 60.0498 140.102 60.0407 140.216 60.0225C140.334 59.9997 140.423 59.9814 140.482 59.9678L140.489 61C140.389 61.0319 140.257 61.0615 140.093 61.0889C139.933 61.1208 139.74 61.1367 139.512 61.1367C139.202 61.1367 138.917 61.0752 138.657 60.9521C138.397 60.8291 138.19 60.624 138.035 60.3369C137.885 60.0452 137.81 59.6533 137.81 59.1611V51.8057ZM146.464 59.291V53.6035H147.735V61H146.525L146.464 59.291ZM146.703 57.7324L147.229 57.7188C147.229 58.2109 147.177 58.6667 147.072 59.0859C146.972 59.5007 146.808 59.8607 146.58 60.166C146.352 60.4714 146.054 60.7106 145.685 60.8838C145.315 61.0524 144.867 61.1367 144.338 61.1367C143.978 61.1367 143.647 61.0843 143.347 60.9795C143.05 60.8747 142.795 60.7129 142.581 60.4941C142.367 60.2754 142.201 59.9906 142.082 59.6396C141.968 59.2887 141.911 58.8672 141.911 58.375V53.6035H143.176V58.3887C143.176 58.7214 143.212 58.9971 143.285 59.2158C143.363 59.43 143.465 59.6009 143.593 59.7285C143.725 59.8516 143.871 59.9382 144.03 59.9883C144.194 60.0384 144.363 60.0635 144.536 60.0635C145.074 60.0635 145.5 59.9609 145.814 59.7559C146.129 59.5462 146.354 59.266 146.491 58.915C146.632 58.5596 146.703 58.1654 146.703 57.7324ZM150.921 55.0732V61H149.649V53.6035H150.853L150.921 55.0732ZM150.661 57.0215L150.073 57.001C150.078 56.4951 150.144 56.028 150.271 55.5996C150.399 55.1667 150.588 54.7907 150.839 54.4717C151.09 54.1527 151.402 53.9066 151.775 53.7334C152.149 53.5557 152.582 53.4668 153.074 53.4668C153.421 53.4668 153.74 53.5169 154.031 53.6172C154.323 53.7129 154.576 53.8656 154.79 54.0752C155.004 54.2848 155.171 54.5537 155.289 54.8818C155.408 55.21 155.467 55.6064 155.467 56.0713V61H154.202V56.1328C154.202 55.7454 154.136 55.4355 154.004 55.2031C153.876 54.9707 153.694 54.8021 153.457 54.6973C153.22 54.5879 152.942 54.5332 152.623 54.5332C152.249 54.5332 151.937 54.5993 151.687 54.7314C151.436 54.8636 151.235 55.0459 151.085 55.2783C150.935 55.5107 150.825 55.7773 150.757 56.0781C150.693 56.3743 150.661 56.6888 150.661 57.0215ZM155.453 56.3242L154.605 56.584C154.61 56.1784 154.676 55.7887 154.804 55.415C154.936 55.0413 155.125 54.7087 155.371 54.417C155.622 54.1253 155.929 53.8952 156.294 53.7266C156.659 53.5534 157.076 53.4668 157.545 53.4668C157.941 53.4668 158.292 53.5192 158.598 53.624C158.908 53.7288 159.167 53.8906 159.377 54.1094C159.591 54.3236 159.753 54.5993 159.862 54.9365C159.972 55.2738 160.026 55.6748 160.026 56.1396V61H158.755V56.126C158.755 55.7113 158.689 55.39 158.557 55.1621C158.429 54.9297 158.247 54.7679 158.01 54.6768C157.777 54.5811 157.499 54.5332 157.176 54.5332C156.898 54.5332 156.652 54.5811 156.438 54.6768C156.223 54.7725 156.043 54.9046 155.897 55.0732C155.752 55.2373 155.64 55.4264 155.562 55.6406C155.49 55.8548 155.453 56.0827 155.453 56.3242ZM166.302 59.7354V55.9277C166.302 55.6361 166.243 55.3831 166.124 55.1689C166.01 54.9502 165.837 54.7816 165.604 54.6631C165.372 54.5446 165.085 54.4854 164.743 54.4854C164.424 54.4854 164.144 54.54 163.902 54.6494C163.665 54.7588 163.479 54.9023 163.342 55.0801C163.21 55.2578 163.144 55.4492 163.144 55.6543H161.879C161.879 55.39 161.947 55.1279 162.084 54.8682C162.221 54.6084 162.417 54.3737 162.672 54.1641C162.932 53.9499 163.242 53.7812 163.602 53.6582C163.966 53.5306 164.372 53.4668 164.818 53.4668C165.356 53.4668 165.83 53.5579 166.24 53.7402C166.655 53.9225 166.979 54.1982 167.211 54.5674C167.448 54.932 167.566 55.39 167.566 55.9414V59.3867C167.566 59.6328 167.587 59.8949 167.628 60.1729C167.674 60.4508 167.74 60.6901 167.826 60.8906V61H166.507C166.443 60.8542 166.393 60.6605 166.356 60.4189C166.32 60.1729 166.302 59.945 166.302 59.7354ZM166.521 56.5156L166.534 57.4043H165.256C164.896 57.4043 164.575 57.4339 164.292 57.4932C164.009 57.5479 163.772 57.6322 163.581 57.7461C163.39 57.86 163.244 58.0036 163.144 58.1768C163.043 58.3454 162.993 58.5436 162.993 58.7715C162.993 59.0039 163.046 59.2158 163.15 59.4072C163.255 59.5986 163.412 59.7513 163.622 59.8652C163.836 59.9746 164.098 60.0293 164.408 60.0293C164.796 60.0293 165.137 59.9473 165.434 59.7832C165.73 59.6191 165.965 59.4186 166.138 59.1816C166.315 58.9447 166.411 58.7145 166.425 58.4912L166.965 59.0996C166.933 59.291 166.846 59.5029 166.705 59.7354C166.564 59.9678 166.375 60.1911 166.138 60.4053C165.905 60.6149 165.627 60.7904 165.304 60.9316C164.985 61.0684 164.625 61.1367 164.224 61.1367C163.722 61.1367 163.283 61.0387 162.904 60.8428C162.531 60.6468 162.239 60.3848 162.029 60.0566C161.824 59.724 161.722 59.3525 161.722 58.9424C161.722 58.5459 161.799 58.1973 161.954 57.8965C162.109 57.5911 162.332 57.3382 162.624 57.1377C162.916 56.9326 163.267 56.7777 163.677 56.6729C164.087 56.568 164.545 56.5156 165.051 56.5156H166.521ZM170.82 55.1826V61H169.556V53.6035H170.752L170.82 55.1826ZM170.52 57.0215L169.993 57.001C169.998 56.4951 170.073 56.028 170.219 55.5996C170.365 55.1667 170.57 54.7907 170.834 54.4717C171.098 54.1527 171.413 53.9066 171.777 53.7334C172.146 53.5557 172.554 53.4668 173.001 53.4668C173.366 53.4668 173.694 53.5169 173.985 53.6172C174.277 53.7129 174.525 53.8678 174.73 54.082C174.94 54.2962 175.1 54.5742 175.209 54.916C175.318 55.2533 175.373 55.6657 175.373 56.1533V61H174.102V56.1396C174.102 55.7523 174.045 55.4424 173.931 55.21C173.817 54.973 173.65 54.8021 173.432 54.6973C173.213 54.5879 172.944 54.5332 172.625 54.5332C172.311 54.5332 172.023 54.5993 171.764 54.7314C171.508 54.8636 171.287 55.0459 171.101 55.2783C170.918 55.5107 170.775 55.7773 170.67 56.0781C170.57 56.3743 170.52 56.6888 170.52 57.0215ZM177.314 60.3301C177.314 60.1159 177.381 59.9359 177.513 59.79C177.649 59.6396 177.845 59.5645 178.101 59.5645C178.356 59.5645 178.549 59.6396 178.682 59.79C178.818 59.9359 178.887 60.1159 178.887 60.3301C178.887 60.5397 178.818 60.7174 178.682 60.8633C178.549 61.0091 178.356 61.082 178.101 61.082C177.845 61.082 177.649 61.0091 177.513 60.8633C177.381 60.7174 177.314 60.5397 177.314 60.3301ZM185.969 51.0469V61H184.649V51.0469H185.969ZM190.139 55.5244V56.6045H185.682V55.5244H190.139ZM190.815 51.0469V52.127H185.682V51.0469H190.815ZM193.57 53.6035V61H192.299V53.6035H193.57ZM192.203 51.6416C192.203 51.4365 192.265 51.2633 192.388 51.1221C192.515 50.9808 192.702 50.9102 192.948 50.9102C193.19 50.9102 193.374 50.9808 193.502 51.1221C193.634 51.2633 193.7 51.4365 193.7 51.6416C193.7 51.8376 193.634 52.0062 193.502 52.1475C193.374 52.2842 193.19 52.3525 192.948 52.3525C192.702 52.3525 192.515 52.2842 192.388 52.1475C192.265 52.0062 192.203 51.8376 192.203 51.6416ZM200.263 59.5645V50.5H201.534V61H200.372L200.263 59.5645ZM195.286 57.3838V57.2402C195.286 56.6751 195.354 56.1624 195.491 55.7021C195.632 55.2373 195.831 54.8385 196.086 54.5059C196.346 54.1732 196.653 53.918 197.009 53.7402C197.369 53.5579 197.77 53.4668 198.212 53.4668C198.677 53.4668 199.082 53.5488 199.429 53.7129C199.78 53.8724 200.076 54.1071 200.317 54.417C200.563 54.7223 200.757 55.0915 200.898 55.5244C201.04 55.9574 201.138 56.4473 201.192 56.9941V57.623C201.142 58.1654 201.044 58.653 200.898 59.0859C200.757 59.5189 200.563 59.888 200.317 60.1934C200.076 60.4987 199.78 60.7334 199.429 60.8975C199.078 61.057 198.668 61.1367 198.198 61.1367C197.765 61.1367 197.369 61.0433 197.009 60.8564C196.653 60.6696 196.346 60.4076 196.086 60.0703C195.831 59.7331 195.632 59.3366 195.491 58.8809C195.354 58.4206 195.286 57.9215 195.286 57.3838ZM196.558 57.2402V57.3838C196.558 57.7529 196.594 58.0993 196.667 58.4229C196.744 58.7464 196.863 59.0312 197.022 59.2773C197.182 59.5234 197.385 59.7171 197.631 59.8584C197.877 59.9951 198.171 60.0635 198.513 60.0635C198.932 60.0635 199.276 59.9746 199.545 59.7969C199.818 59.6191 200.037 59.3844 200.201 59.0928C200.365 58.8011 200.493 58.4844 200.584 58.1426V56.4951C200.529 56.2445 200.45 56.0029 200.345 55.7705C200.244 55.5335 200.112 55.3239 199.948 55.1416C199.789 54.9548 199.59 54.8066 199.354 54.6973C199.121 54.5879 198.845 54.5332 198.526 54.5332C198.18 54.5332 197.882 54.6061 197.631 54.752C197.385 54.8932 197.182 55.0892 197.022 55.3398C196.863 55.5859 196.744 55.873 196.667 56.2012C196.594 56.5247 196.558 56.8711 196.558 57.2402ZM203.168 57.3838V57.2266C203.168 56.6934 203.245 56.1989 203.4 55.7432C203.555 55.2829 203.779 54.8841 204.07 54.5469C204.362 54.2051 204.715 53.9408 205.13 53.7539C205.545 53.5625 206.009 53.4668 206.524 53.4668C207.044 53.4668 207.511 53.5625 207.926 53.7539C208.345 53.9408 208.701 54.2051 208.992 54.5469C209.288 54.8841 209.514 55.2829 209.669 55.7432C209.824 56.1989 209.901 56.6934 209.901 57.2266V57.3838C209.901 57.917 209.824 58.4115 209.669 58.8672C209.514 59.3229 209.288 59.7217 208.992 60.0635C208.701 60.4007 208.347 60.665 207.933 60.8564C207.522 61.0433 207.058 61.1367 206.538 61.1367C206.019 61.1367 205.551 61.0433 205.137 60.8564C204.722 60.665 204.367 60.4007 204.07 60.0635C203.779 59.7217 203.555 59.3229 203.4 58.8672C203.245 58.4115 203.168 57.917 203.168 57.3838ZM204.433 57.2266V57.3838C204.433 57.7529 204.476 58.1016 204.562 58.4297C204.649 58.7533 204.779 59.0404 204.952 59.291C205.13 59.5417 205.351 59.7399 205.615 59.8857C205.88 60.027 206.187 60.0977 206.538 60.0977C206.884 60.0977 207.188 60.027 207.447 59.8857C207.712 59.7399 207.93 59.5417 208.104 59.291C208.277 59.0404 208.407 58.7533 208.493 58.4297C208.584 58.1016 208.63 57.7529 208.63 57.3838V57.2266C208.63 56.862 208.584 56.5179 208.493 56.1943C208.407 55.8662 208.274 55.5768 208.097 55.3262C207.924 55.071 207.705 54.8704 207.44 54.7246C207.181 54.5788 206.875 54.5059 206.524 54.5059C206.178 54.5059 205.873 54.5788 205.608 54.7246C205.349 54.8704 205.13 55.071 204.952 55.3262C204.779 55.5768 204.649 55.8662 204.562 56.1943C204.476 56.5179 204.433 56.862 204.433 57.2266ZM212.759 50.5V61H211.487V50.5H212.759ZM217.277 53.6035L214.051 57.0557L212.246 58.9287L212.144 57.582L213.436 56.0371L215.732 53.6035H217.277ZM216.122 61L213.483 57.4727L214.14 56.3447L217.612 61H216.122ZM218.248 57.3838V57.2266C218.248 56.6934 218.326 56.1989 218.48 55.7432C218.635 55.2829 218.859 54.8841 219.15 54.5469C219.442 54.2051 219.795 53.9408 220.21 53.7539C220.625 53.5625 221.09 53.4668 221.604 53.4668C222.124 53.4668 222.591 53.5625 223.006 53.7539C223.425 53.9408 223.781 54.2051 224.072 54.5469C224.368 54.8841 224.594 55.2829 224.749 55.7432C224.904 56.1989 224.981 56.6934 224.981 57.2266V57.3838C224.981 57.917 224.904 58.4115 224.749 58.8672C224.594 59.3229 224.368 59.7217 224.072 60.0635C223.781 60.4007 223.427 60.665 223.013 60.8564C222.603 61.0433 222.138 61.1367 221.618 61.1367C221.099 61.1367 220.632 61.0433 220.217 60.8564C219.802 60.665 219.447 60.4007 219.15 60.0635C218.859 59.7217 218.635 59.3229 218.48 58.8672C218.326 58.4115 218.248 57.917 218.248 57.3838ZM219.513 57.2266V57.3838C219.513 57.7529 219.556 58.1016 219.643 58.4297C219.729 58.7533 219.859 59.0404 220.032 59.291C220.21 59.5417 220.431 59.7399 220.695 59.8857C220.96 60.027 221.267 60.0977 221.618 60.0977C221.965 60.0977 222.268 60.027 222.527 59.8857C222.792 59.7399 223.01 59.5417 223.184 59.291C223.357 59.0404 223.487 58.7533 223.573 58.4297C223.664 58.1016 223.71 57.7529 223.71 57.3838V57.2266C223.71 56.862 223.664 56.5179 223.573 56.1943C223.487 55.8662 223.354 55.5768 223.177 55.3262C223.004 55.071 222.785 54.8704 222.521 54.7246C222.261 54.5788 221.955 54.5059 221.604 54.5059C221.258 54.5059 220.953 54.5788 220.688 54.7246C220.429 54.8704 220.21 55.071 220.032 55.3262C219.859 55.5768 219.729 55.8662 219.643 56.1943C219.556 56.5179 219.513 56.862 219.513 57.2266ZM227.832 54.7656V61H226.567V53.6035H227.798L227.832 54.7656ZM230.143 53.5625L230.136 54.7383C230.031 54.7155 229.931 54.7018 229.835 54.6973C229.744 54.6882 229.639 54.6836 229.521 54.6836C229.229 54.6836 228.971 54.7292 228.748 54.8203C228.525 54.9115 228.336 55.0391 228.181 55.2031C228.026 55.3672 227.903 55.5632 227.812 55.791C227.725 56.0143 227.668 56.2604 227.641 56.5293L227.285 56.7344C227.285 56.2878 227.328 55.8685 227.415 55.4766C227.506 55.0846 227.645 54.7383 227.832 54.4375C228.019 54.1322 228.256 53.8952 228.543 53.7266C228.835 53.5534 229.181 53.4668 229.582 53.4668C229.673 53.4668 229.778 53.4782 229.896 53.501C230.015 53.5192 230.097 53.5397 230.143 53.5625ZM238.804 50.9922V61H237.539V52.5713L234.989 53.501V52.3594L238.605 50.9922H238.804ZM248.771 55.2305V56.748C248.771 57.5638 248.698 58.252 248.552 58.8125C248.406 59.373 248.196 59.8242 247.923 60.166C247.649 60.5078 247.319 60.7562 246.932 60.9111C246.549 61.0615 246.116 61.1367 245.633 61.1367C245.25 61.1367 244.897 61.0889 244.573 60.9932C244.25 60.8975 243.958 60.7448 243.698 60.5352C243.443 60.321 243.224 60.043 243.042 59.7012C242.86 59.3594 242.721 58.9447 242.625 58.457C242.529 57.9694 242.481 57.3997 242.481 56.748V55.2305C242.481 54.4147 242.554 53.7311 242.7 53.1797C242.851 52.6283 243.062 52.1862 243.336 51.8535C243.609 51.5163 243.938 51.2747 244.32 51.1289C244.708 50.9831 245.141 50.9102 245.619 50.9102C246.007 50.9102 246.362 50.958 246.686 51.0537C247.014 51.1449 247.305 51.293 247.561 51.498C247.816 51.6986 248.032 51.9674 248.21 52.3047C248.392 52.6374 248.531 53.0452 248.627 53.5283C248.723 54.0114 248.771 54.5788 248.771 55.2305ZM247.499 56.9531V55.0186C247.499 54.5719 247.472 54.18 247.417 53.8428C247.367 53.501 247.292 53.2093 247.191 52.9678C247.091 52.7262 246.964 52.5303 246.809 52.3799C246.658 52.2295 246.483 52.1201 246.282 52.0518C246.086 51.9788 245.865 51.9424 245.619 51.9424C245.318 51.9424 245.052 51.9993 244.819 52.1133C244.587 52.2227 244.391 52.3981 244.231 52.6396C244.076 52.8812 243.958 53.1979 243.876 53.5898C243.794 53.9818 243.753 54.458 243.753 55.0186V56.9531C243.753 57.3997 243.778 57.7939 243.828 58.1357C243.883 58.4775 243.963 58.7738 244.067 59.0244C244.172 59.2705 244.3 59.4733 244.45 59.6328C244.601 59.7923 244.774 59.9108 244.97 59.9883C245.17 60.0612 245.391 60.0977 245.633 60.0977C245.943 60.0977 246.214 60.0384 246.446 59.9199C246.679 59.8014 246.872 59.6169 247.027 59.3662C247.187 59.111 247.305 58.7852 247.383 58.3887C247.46 57.9876 247.499 57.5091 247.499 56.9531ZM250.555 60.3301C250.555 60.1159 250.621 59.9359 250.753 59.79C250.89 59.6396 251.086 59.5645 251.341 59.5645C251.596 59.5645 251.79 59.6396 251.922 59.79C252.059 59.9359 252.127 60.1159 252.127 60.3301C252.127 60.5397 252.059 60.7174 251.922 60.8633C251.79 61.0091 251.596 61.082 251.341 61.082C251.086 61.082 250.89 61.0091 250.753 60.8633C250.621 60.7174 250.555 60.5397 250.555 60.3301ZM264.288 57.6504V58.6895H257.097V57.9443L261.554 51.0469H262.586L261.479 53.043L258.532 57.6504H264.288ZM262.9 51.0469V61H261.636V51.0469H262.9ZM269.935 59.7354V55.9277C269.935 55.6361 269.875 55.3831 269.757 55.1689C269.643 54.9502 269.47 54.7816 269.237 54.6631C269.005 54.5446 268.718 54.4854 268.376 54.4854C268.057 54.4854 267.777 54.54 267.535 54.6494C267.298 54.7588 267.111 54.9023 266.975 55.0801C266.842 55.2578 266.776 55.4492 266.776 55.6543H265.512C265.512 55.39 265.58 55.1279 265.717 54.8682C265.854 54.6084 266.049 54.3737 266.305 54.1641C266.564 53.9499 266.874 53.7812 267.234 53.6582C267.599 53.5306 268.005 53.4668 268.451 53.4668C268.989 53.4668 269.463 53.5579 269.873 53.7402C270.288 53.9225 270.611 54.1982 270.844 54.5674C271.081 54.932 271.199 55.39 271.199 55.9414V59.3867C271.199 59.6328 271.22 59.8949 271.261 60.1729C271.306 60.4508 271.372 60.6901 271.459 60.8906V61H270.14C270.076 60.8542 270.026 60.6605 269.989 60.4189C269.953 60.1729 269.935 59.945 269.935 59.7354ZM270.153 56.5156L270.167 57.4043H268.889C268.529 57.4043 268.207 57.4339 267.925 57.4932C267.642 57.5479 267.405 57.6322 267.214 57.7461C267.022 57.86 266.877 58.0036 266.776 58.1768C266.676 58.3454 266.626 58.5436 266.626 58.7715C266.626 59.0039 266.678 59.2158 266.783 59.4072C266.888 59.5986 267.045 59.7513 267.255 59.8652C267.469 59.9746 267.731 60.0293 268.041 60.0293C268.428 60.0293 268.77 59.9473 269.066 59.7832C269.363 59.6191 269.597 59.4186 269.771 59.1816C269.948 58.9447 270.044 58.7145 270.058 58.4912L270.598 59.0996C270.566 59.291 270.479 59.5029 270.338 59.7354C270.197 59.9678 270.007 60.1911 269.771 60.4053C269.538 60.6149 269.26 60.7904 268.937 60.9316C268.618 61.0684 268.257 61.1367 267.856 61.1367C267.355 61.1367 266.915 61.0387 266.537 60.8428C266.163 60.6468 265.872 60.3848 265.662 60.0566C265.457 59.724 265.354 59.3525 265.354 58.9424C265.354 58.5459 265.432 58.1973 265.587 57.8965C265.742 57.5911 265.965 57.3382 266.257 57.1377C266.549 56.9326 266.899 56.7777 267.31 56.6729C267.72 56.568 268.178 56.5156 268.684 56.5156H270.153ZM281.187 59.291V53.6035H282.458V61H281.248L281.187 59.291ZM281.426 57.7324L281.952 57.7188C281.952 58.2109 281.9 58.6667 281.795 59.0859C281.695 59.5007 281.531 59.8607 281.303 60.166C281.075 60.4714 280.776 60.7106 280.407 60.8838C280.038 61.0524 279.589 61.1367 279.061 61.1367C278.701 61.1367 278.37 61.0843 278.069 60.9795C277.773 60.8747 277.518 60.7129 277.304 60.4941C277.09 60.2754 276.923 59.9906 276.805 59.6396C276.691 59.2887 276.634 58.8672 276.634 58.375V53.6035H277.898V58.3887C277.898 58.7214 277.935 58.9971 278.008 59.2158C278.085 59.43 278.188 59.6009 278.315 59.7285C278.448 59.8516 278.593 59.9382 278.753 59.9883C278.917 60.0384 279.086 60.0635 279.259 60.0635C279.797 60.0635 280.223 59.9609 280.537 59.7559C280.852 59.5462 281.077 59.266 281.214 58.915C281.355 58.5596 281.426 58.1654 281.426 57.7324ZM286.464 60.2344L288.521 53.6035H289.875L286.908 62.1416C286.84 62.3239 286.749 62.5199 286.635 62.7295C286.525 62.9437 286.384 63.1465 286.211 63.3379C286.038 63.5293 285.828 63.6842 285.582 63.8027C285.34 63.9258 285.051 63.9873 284.714 63.9873C284.614 63.9873 284.486 63.9736 284.331 63.9463C284.176 63.9189 284.067 63.8962 284.003 63.8779L283.996 62.8525C284.033 62.8571 284.09 62.8617 284.167 62.8662C284.249 62.8753 284.306 62.8799 284.338 62.8799C284.625 62.8799 284.869 62.8411 285.069 62.7637C285.27 62.6908 285.438 62.5654 285.575 62.3877C285.716 62.2145 285.837 61.9753 285.938 61.6699L286.464 60.2344ZM284.953 53.6035L286.874 59.3457L287.202 60.6787L286.293 61.1436L283.572 53.6035H284.953Z" fill="#262626"/>
<rect x="403" y="14" width="1" height="44" fill="#333333"/>
<circle cx="522" cy="36" r="18" fill="#0D0D0D"/>
<rect x="512.7" y="26.7" width="18.6" height="18.6" rx="5.3" stroke="white" stroke-opacity="0.6" stroke-width="1.4"/>
<rect x="517.5" y="31.5" width="9" height="9" rx="4.5" stroke="white" stroke-opacity="0.6" stroke-width="1.4"/>
<circle cx="572" cy="36" r="18" fill="#0D0D0D"/>
<circle cx="622" cy="36" r="18" fill="#0D0D0D"/>
<path d="M573.388 45.5C573.388 45.7761 573.164 46 572.888 46H569.78C569.504 46 569.28 45.7761 569.28 45.5V31.1246C569.28 30.0158 569.507 29.0829 569.96 28.3257C570.423 27.5595 571.07 26.9825 571.901 26.5949C572.741 26.1983 573.737 26 574.89 26C575.267 26 575.631 26.027 575.98 26.0811C576.19 26.1082 576.396 26.1401 576.599 26.1769C576.833 26.2194 576.998 26.4278 576.994 26.6655L576.966 28.6161C576.962 28.9097 576.683 29.123 576.391 29.0964C576.193 29.0783 575.961 29.0693 575.697 29.0693C575.206 29.0693 574.786 29.1505 574.436 29.3127C574.096 29.466 573.837 29.6958 573.657 30.0023C573.478 30.3088 573.388 30.6829 573.388 31.1246V45.5ZM575.948 32.4226C576.224 32.4226 576.448 32.6465 576.448 32.9226V34.6809C576.448 34.9571 576.224 35.1809 575.948 35.1809H567.5C567.224 35.1809 567 34.9571 567 34.6809V32.9226C567 32.6465 567.224 32.4226 567.5 32.4226H575.948Z" fill="white" fill-opacity="0.6"/>
<path d="M614.806 33.8715L626.752 29.2552C628.195 28.6977 628.916 28.419 629.366 28.7832C629.816 29.1475 629.693 29.9111 629.447 31.4381L627.908 41.0181C627.691 42.3656 627.583 43.0394 627.094 43.2612C626.604 43.4829 626.026 43.1202 624.87 42.3949L623.325 41.4252C621.333 40.1758 620.338 39.551 620.236 38.5825C620.135 37.614 620.98 36.7967 622.669 35.162L625.97 31.9693C626.137 31.8079 626.022 31.5254 625.79 31.5254C625.741 31.5254 625.692 31.5397 625.65 31.5664L617.702 36.6736C617.188 37.0037 616.931 37.1688 616.648 37.2498C616.485 37.2964 616.317 37.3221 616.147 37.3263C615.853 37.3336 615.558 37.2529 614.969 37.0914C613.308 36.6359 612.478 36.4082 612.283 35.984C612.177 35.7513 612.163 35.4866 612.246 35.2444C612.397 34.8027 613.2 34.4923 614.806 33.8715Z" fill="white" fill-opacity="0.6"/>
<rect x="526" y="30" width="2" height="2" rx="1" fill="white" fill-opacity="0.6"/>
</svg>
