<svg width="303" height="60" viewBox="0 0 303 60" fill="none" xmlns="http://www.w3.org/2000/svg">
<path d="M8.828 34H14.048V32.932H10.076V29.644H13.844V28.564H10.076V25.276H14.048V24.208H8.828V34ZM16.5185 26.2H15.3065V34H16.5185V28.672C16.5905 27.976 16.9625 27.1 18.1505 27.1C19.1225 27.1 19.5545 27.688 19.5545 28.804V34H20.7545V28.708C20.7545 27.052 20.0345 26.08 18.5945 26.08C17.4545 26.08 16.8305 26.716 16.5185 27.304V26.2ZM26.4571 33.832C26.4571 35.116 26.1811 35.56 25.1371 35.56H22.3171V36.592H25.3291C27.1531 36.592 27.6571 35.752 27.6571 33.928V26.2H26.4571V27.172C26.1451 26.692 25.5451 26.08 24.4051 26.08C22.8451 26.08 21.9451 27.184 21.9451 28.888V31.252C21.9451 33.016 22.8571 34.12 24.4051 34.12C25.5811 34.12 26.1811 33.472 26.4571 32.944V33.832ZM23.1811 31.18V29.02C23.1811 27.904 23.6611 27.112 24.7771 27.112C25.9171 27.112 26.4571 27.964 26.4571 29.02V31.168C26.4571 32.236 25.9051 33.088 24.7771 33.088C23.6611 33.088 23.1811 32.284 23.1811 31.18ZM29.1463 24.208V34H30.3583V24.208H29.1463ZM31.8417 26.2V34H33.0537V26.2H31.8417ZM31.6377 24.772C31.6377 25.132 31.9137 25.42 32.4417 25.42C32.9697 25.42 33.2577 25.132 33.2577 24.772C33.2577 24.376 32.9697 24.088 32.4417 24.088C31.9137 24.088 31.6377 24.376 31.6377 24.772ZM38.125 29.812L36.529 29.116C35.833 28.828 35.569 28.552 35.569 28.06C35.569 27.4 36.121 27.1 36.925 27.1C37.897 27.1 38.425 27.436 38.425 28.42V28.72H39.649V28.408C39.649 27.016 38.905 26.08 36.925 26.08C35.017 26.08 34.345 27.052 34.345 28.12C34.345 29.08 34.861 29.668 35.941 30.052L37.393 30.676C38.245 31.06 38.521 31.384 38.521 31.972C38.521 32.716 38.101 33.1 37.069 33.1C35.917 33.1 35.401 32.692 35.401 31.66V31.276H34.165V31.672C34.165 33.208 35.005 34.12 37.069 34.12C39.109 34.12 39.757 33.112 39.757 31.9C39.757 30.892 39.313 30.292 38.125 29.812ZM42.124 24.208H40.912V34H42.124V28.924C42.124 28.204 42.436 27.1 43.768 27.1C44.74 27.1 45.172 27.688 45.172 28.804V34H46.372V28.708C46.372 27.052 45.652 26.08 44.212 26.08C43.06 26.08 42.436 26.728 42.124 27.328V24.208Z" fill="#262626"/>
<path d="M56 27L62 33L68 27" stroke="#262626" stroke-linecap="square"/>
<rect x="112" width="1" height="60" fill="#808080"/>
<mask id="mask0_3801_24973" style="mask-type:alpha" maskUnits="userSpaceOnUse" x="157" y="18" width="24" height="24">
<rect x="157" y="18" width="24" height="24" fill="#D9D9D9"/>
</mask>
<g mask="url(#mask0_3801_24973)">
<circle cx="169" cy="26" r="5" stroke="#0D0D0D" stroke-width="2"/>
<path d="M179 40C179 38.6868 178.741 37.3864 178.239 36.1732C177.736 34.9599 177 33.8575 176.071 32.9289C175.142 32.0003 174.04 31.2638 172.827 30.7612C171.614 30.2587 170.313 30 169 30C167.687 30 166.386 30.2587 165.173 30.7612C163.96 31.2638 162.858 32.0003 161.929 32.9289C161 33.8575 160.264 34.9599 159.761 36.1732C159.259 37.3864 159 38.6868 159 40H160.999C160.999 38.9493 161.206 37.9089 161.608 36.9382C162.01 35.9675 162.6 35.0855 163.343 34.3425C164.085 33.5995 164.967 33.0102 165.938 32.6081C166.909 32.206 167.949 31.9991 169 31.9991C170.051 31.9991 171.091 32.206 172.062 32.6081C173.033 33.0102 173.915 33.5995 174.657 34.3425C175.4 35.0855 175.99 35.9675 176.392 36.9382C176.794 37.9089 177.001 38.9493 177.001 40H179Z" fill="#0D0D0D"/>
</g>
<rect x="197" y="22" width="1" height="16" rx="0.5" fill="#B3B3B3"/>
<path fill-rule="evenodd" clip-rule="evenodd" d="M226.012 23.5719L224.925 22.4849C222.777 20.3371 219.295 20.3371 217.147 22.4849C214.999 24.6328 214.999 28.1152 217.147 30.2631L225.986 39.1019L225.988 39.1001L226.014 39.1265L234.853 30.2876C237.001 28.1398 237.001 24.6574 234.853 22.5095C232.705 20.3616 229.223 20.3616 227.075 22.5095L226.012 23.5719ZM225.988 36.2717L230.924 31.3355L232.375 29.9344L232.376 29.9359L233.439 28.8734C234.805 27.5066 234.805 25.2905 233.439 23.9237C232.072 22.5569 229.856 22.5569 228.489 23.9237L226.013 26.3993L226.006 26.392L226.005 26.3931L223.511 23.8991C222.144 22.5323 219.928 22.5323 218.561 23.8991C217.194 25.266 217.194 27.4821 218.561 28.8489L221.101 31.3883L221.102 31.3865L225.988 36.2717Z" fill="#0D0D0D"/>
<circle cx="226" cy="46" r="2" fill="#F91B1B"/>
<rect x="254" y="22" width="1" height="16" rx="0.5" fill="#B3B3B3"/>
<path d="M277 20L274 24V38C274 38.5304 274.211 39.0391 274.586 39.4142C274.961 39.7893 275.47 40 276 40H290C290.53 40 291.039 39.7893 291.414 39.4142C291.789 39.0391 292 38.5304 292 38V24L289 20H277Z" stroke="#0D0D0D" stroke-width="2" stroke-linecap="round" stroke-linejoin="round"/>
<path d="M287 28C287 29.0609 286.579 30.0783 285.828 30.8284C285.078 31.5786 284.061 32 283 32C281.939 32 280.922 31.5786 280.172 30.8284C279.421 30.0783 279 29.0609 279 28" stroke="#0D0D0D" stroke-width="2" stroke-linecap="round" stroke-linejoin="round"/>
<path d="M274 24H292" stroke="#0D0D0D" stroke-width="2" stroke-linecap="round" stroke-linejoin="round"/>
<circle cx="283" cy="46" r="2" fill="#F91B1B"/>
</svg>
